# xmcd
#
# Track frame offsets:
#	150
#	20562
#	38805
#	55937
#	74442
#	91567
#	117777
#	134187
#	152897
#	172260
#	189430
#	203355
#	222422
#	240157
#
# Disc length: 3498 seconds
#
# Revision: 0
# Processed by: cddbd v1.4PL0 Copyright (c) Steve Scherf et al.
# Submitted via: dBpowerAMP V4.0
#
DISCID=c10da80e
DTITLE=Varios - 10a Sapecada da Cancao Nativa
DYEAR=2002
DGENRE=country
TTITLE0=Herdeiro do Contestado
TTITLE1=Guacurary
TTITLE2=No Cantar do Homem do Sul
TTITLE3=Bica Meu Galo
TTITLE4=Milonga "Veia" Gaucha
TTITLE5=A Poesia em Pelo Mouro
TTITLE6=Legua e Pico
TTITLE7=Me Benzo Me Aprumo
TTITLE8=Por um Abraco
TTITLE9=Pela Luz de Um Chamame
TTITLE10=Entardecer
TTITLE11=A Ternura de Quem Vive nos Galpoes
TTITLE12=Cavalgar e Preciso
TTITLE13=Carteio da Vida
EXTD=
EXTT0=
EXTT1=
EXTT2=
EXTT3=
EXTT4=
EXTT5=
EXTT6=
EXTT7=
EXTT8=
EXTT9=
EXTT10=
EXTT11=
EXTT12=
EXTT13=
PLAYORDER=
